<svg version="1.1" id="Layer_1" xmlns="http://www.w3.org/2000/svg" x="0" y="0" viewBox="0 0 801.5 353.2" style="enable-background:new 0 0 801.5 353.2" xml:space="preserve"><style>.st0{fill:#fff;stroke:#fff;stroke-width:2;stroke-miterlimit:10}</style><g id="Layer_2_1_"><g id="Layer_2-2"><path class="st0" d="M88.5 202.7V228h32v-25.3h6.9v62.4h-6.9v-30.5h-32v30.5h-6.9v-62.4h6.9zM142.5 202.7h6.9v62.4h-6.9v-62.4zM197.5 211.4l-5.4 3.6c-.5-.9-1-1.7-1.6-2.5-.6-.8-1.2-1.5-1.9-2.1-2-1.4-4.4-2.2-6.9-2.1-2.7-.1-5.4.8-7.4 2.7-1.9 1.8-3 4.4-2.8 7 0 1 .1 2 .5 3 .4.9 1 1.7 1.8 2.4.7.7 1.5 1.4 2.4 1.9 1.3.8 2.6 1.4 4 2l5.9 2.6c1.9.9 3.8 1.8 5.6 2.9 1.4.9 2.6 1.8 3.8 2.9 1.4 1.5 2.5 3.2 3.3 5.1.7 2 1.1 4.1 1.1 6.2 0 5.7-1.8 10.3-5.5 13.9-3.7 3.5-8.7 5.4-13.9 5.3-2.5 0-5-.4-7.4-1.2-2.2-.8-4.3-2.1-5.9-3.8-1.5-1.4-2.8-3.2-3.7-5.1-.9-1.9-1.6-3.9-2-6l6.6-1.9c.2 1.6.6 3.1 1.2 4.5.6 1.3 1.4 2.5 2.4 3.4 1 1.1 2.3 2 3.8 2.6 1.6.6 3.3.9 5 .8 3.2.1 6.4-1.1 8.8-3.3 2.3-2.2 3.5-5.2 3.5-9 0-1.3-.2-2.7-.7-3.9-.5-1.3-1.3-2.4-2.3-3.4-.8-.6-1.6-1.2-2.4-1.7-.9-.6-2.6-1.4-4.9-2.6L177 233c-1.8-.8-3.6-1.7-5.3-2.8-1-.7-2-1.5-2.9-2.4-1.4-1.3-2.6-2.9-3.3-4.7-.6-1.8-.9-3.6-.9-5.5-.1-4.4 1.6-8.6 4.8-11.6 3.4-3 7.8-4.7 12.4-4.5 1.8 0 3.5.3 5.3.7 1.6.4 3.2 1.1 4.6 2.1 1.2.9 2.4 1.9 3.4 3.1.7 1.3 1.6 2.6 2.4 4zM238.7 209.2h-15.1V265h-6.9v-55.8h-15.2v-6.6h37.2v6.6zM272.5 266.1c-8.5.2-16.7-3.1-22.7-9.2-6.2-6.1-9.3-13.8-9.2-23 .1-9.2 3.1-16.9 9.3-23 12.6-12.3 32.7-12.3 45.3 0 6.2 6.2 9.3 13.8 9.3 23s-3.1 16.8-9.3 23c-6.1 6-14.2 9.3-22.7 9.2zm0-57.9c-6.7-.1-13.1 2.6-17.6 7.5-4.8 4.8-7.4 11.4-7.2 18.1-.2 6.8 2.4 13.4 7.2 18.2 9.4 9.7 24.9 10 34.6.6l.6-.6c4.8-4.8 7.4-11.4 7.3-18.2.1-6.8-2.6-13.3-7.3-18.2-4.6-4.8-11-7.5-17.6-7.4zM317.1 202.7h10c3 0 6 .3 8.9.9 2.2.5 4.3 1.3 6.3 2.5 2.2 1.5 3.9 3.5 5 5.9 1.2 2.5 1.8 5.2 1.8 7.9.2 4.4-1.4 8.7-4.4 12-2.9 3.2-7 5.1-11.4 5.2l19.8 27.9h-8.4l-19-27.3h-1.8V265H317l.1-62.3zm6.9 6.5v22.3h4.4c4.3.1 7.7-.9 10.1-2.9 2.4-2 3.6-4.8 3.6-8.5.1-1.9-.4-3.8-1.3-5.4-.9-1.5-2.2-2.8-3.7-3.7-1.2-.6-2.4-1-3.6-1.3-1.8-.3-3.5-.5-5.3-.5H324zM363.1 202.7h6.9v62.4h-6.9v-62.4zM417.5 202.7v6.6h-25.4v18.5h24.7v6.6h-24.7v24.2h25.4v6.5h-32.4v-62.3h32.4zM436.2 265.1h-6.9v-65L478 251v-48.3h6.9v65.2L436.3 217v48.1zM532.9 211.4l-5.4 3.6c-.5-.9-1-1.7-1.7-2.5-.6-.8-1.2-1.5-1.9-2.1-.9-.7-1.9-1.2-3-1.5-1.2-.4-2.5-.6-3.8-.6-2.7-.1-5.4.8-7.4 2.7-1.9 1.8-3 4.4-2.8 7 0 1 .1 2 .5 3 .4.9 1 1.7 1.8 2.4.7.7 1.5 1.4 2.4 1.9 1.3.8 2.6 1.4 4 2l5.9 2.6c1.9.9 3.8 1.8 5.6 2.9 1.4.9 2.6 1.8 3.8 2.9 1.4 1.5 2.5 3.2 3.3 5.1.8 2 1.1 4.1 1.1 6.2 0 5.7-1.8 10.3-5.5 13.9-3.7 3.5-8.7 5.4-13.9 5.3-2.5 0-5-.4-7.5-1.2-2.3-.8-4.3-2.1-5.9-3.8-1.5-1.4-2.8-3.2-3.7-5.1-.9-1.9-1.6-3.9-2-6l6.6-1.9c.2 1.6.6 3.1 1.2 4.5.6 1.3 1.4 2.5 2.4 3.5 1 1.1 2.3 2 3.8 2.6 1.6.6 3.3.9 5 .8 3.2.1 6.4-1.1 8.8-3.3 2.3-2.2 3.5-5.2 3.5-9.1 0-1.3-.2-2.7-.7-3.9-.5-1.3-1.3-2.4-2.3-3.4-.8-.6-1.6-1.2-2.4-1.7-.9-.6-2.6-1.4-4.9-2.6l-5.5-2.6c-1.8-.8-3.6-1.7-5.3-2.8-1-.7-2-1.5-2.9-2.4-1.4-1.3-2.6-2.9-3.3-4.7-.6-1.8-.9-3.6-.9-5.5-.1-4.4 1.6-8.6 4.8-11.6 3.4-3 7.8-4.7 12.4-4.5 1.8 0 3.5.3 5.3.7 1.6.4 3.2 1.1 4.6 2.1 1.2.9 2.4 1.9 3.4 3.1.8 1.3 1.7 2.6 2.5 4zM356.6 343.4c-5.1.1-9.9-1.9-13.5-5.5-3.7-3.6-5.6-8.5-5.5-13.7-.1-5.1 1.9-10 5.5-13.6 7.5-7.5 19.6-7.4 27.1.1s7.4 19.6-.1 27.1c-3.6 3.6-8.5 5.6-13.5 5.6zm0-34.4c-4-.1-7.8 1.6-10.4 4.4-2.8 2.9-4.4 6.8-4.3 10.8-.1 4 1.4 7.9 4.3 10.8 5.6 5.8 14.7 5.9 20.5.4.1-.1.3-.2.4-.4 2.9-2.9 4.4-6.8 4.3-10.8 0-4-1.5-7.9-4.4-10.8-2.7-2.8-6.5-4.4-10.4-4.4zM383.1 342.8v-37h7.6c2.6 0 5.3.4 7.8 1.1 2.1.7 4.1 1.8 5.9 3.2 2 1.7 3.6 3.9 4.7 6.3 2.1 5 2.1 10.7 0 15.7-1.1 2.5-2.8 4.7-4.9 6.4-1.7 1.5-3.6 2.6-5.7 3.3-2.5.7-5.2 1.1-7.8 1h-7.6zm4.1-33.1V339h3.6c2.1 0 4.1-.2 6.1-.8 1.7-.5 3.2-1.4 4.5-2.5 1.6-1.3 2.9-3 3.7-5 .8-2 1.3-4.1 1.3-6.3.2-4-1.4-7.9-4.3-10.6-2.9-2.7-6.6-4-11.3-4.1h-3.6zM436.8 305.8v3.9h-15.1v11h14.7v3.9h-14.7V339h15.1v3.9h-19.2v-37l19.2-.1zM448 342.8h-4.1v-38.6l28.9 30.3v-28.7h4.1v38.7L448 314.2v28.6zM505.3 310.9l-3.2 2.2c-.3-.5-.6-1-1-1.5-.3-.5-.7-.9-1.1-1.3-1.2-.9-2.6-1.3-4.1-1.3-1.6-.1-3.2.5-4.4 1.6-1.1 1.1-1.7 2.6-1.7 4.1 0 .6.1 1.2.3 1.8.3.5.6 1 1.1 1.4.4.4.9.8 1.4 1.1.8.5 1.6.9 2.4 1.2l3.5 1.5c1.2.5 2.3 1.1 3.4 1.8.8.5 1.6 1.1 2.3 1.8.9.9 1.5 1.9 2 3 .4 1.2.7 2.4.6 3.6.1 3.1-1.1 6.1-3.3 8.2-2.2 2.1-5.2 3.2-8.3 3.1-1.5 0-3-.3-4.4-.7-1.3-.5-2.5-1.2-3.5-2.3-.9-.9-1.6-1.9-2.2-3-.6-1.1-1-2.3-1.2-3.5l3.9-1.1c.1.9.3 1.8.7 2.7.3.8.8 1.5 1.4 2 .6.7 1.4 1.2 2.2 1.6 1 .4 2 .5 3 .5 1.9.1 3.8-.6 5.2-2 1.4-1.4 2.2-3.4 2.1-5.4 0-.8-.1-1.6-.4-2.3-.3-.7-.8-1.4-1.4-2-.5-.4-.9-.7-1.5-1-.6-.3-1.5-.9-2.9-1.5l-3.3-1.5c-1.1-.5-2.1-1-3.1-1.6-.6-.4-1.2-.9-1.7-1.4-.9-.8-1.6-1.7-2-2.8-.4-1-.6-2.2-.5-3.3-.1-2.6 1-5.1 2.9-6.9 2-1.8 4.6-2.8 7.4-2.7 1.1 0 2.1.2 3.1.4 1 .3 1.9.7 2.7 1.3.7.5 1.4 1.1 2 1.8.7.9 1.2 1.6 1.6 2.4zM533.3 305.8v3.9h-15.1v11h14.7v3.9h-14.7V339h15.1v3.9H514v-37l19.3-.1zM574.2 202.7V228h32v-25.3h6.9v62.4h-6.9v-30.5h-32v30.5h-6.9v-62.4h6.9zM635.3 202.7v38.2c-.1 4.3.3 7.5 1 9.7.7 2.1 2.1 4 3.8 5.5 1.4 1.1 2.9 2 4.6 2.6 1.7.6 3.6 1 5.4 1 1.8 0 3.6-.4 5.3-1 1.7-.6 3.3-1.4 4.7-2.6 1.7-1.5 2.9-3.3 3.7-5.5.9-3.1 1.3-6.4 1.2-9.7v-38.2h6.9v40.1c.1 2.9-.3 5.8-.9 8.6-.6 2.3-1.6 4.4-2.9 6.3-1.9 2.7-4.5 4.8-7.6 6.2-6.7 2.9-14.2 2.9-20.9 0-3-1.4-5.6-3.5-7.5-6.2-1.4-1.9-2.4-4.1-3-6.3-.7-2.8-1-5.7-.8-8.6v-40.1h7zM720.6 211.4l-5.4 3.6c-.5-.9-1-1.7-1.7-2.5-.6-.8-1.2-1.5-1.9-2.1-.9-.7-1.9-1.2-3-1.5-1.2-.4-2.5-.6-3.8-.6-2.7-.1-5.4.8-7.4 2.7-1.9 1.8-3 4.4-2.8 7 0 1 .1 2 .5 3 .4.9 1 1.7 1.8 2.4.7.7 1.5 1.4 2.4 1.9 1.3.8 2.6 1.4 4 2l5.9 2.6c1.9.9 3.8 1.8 5.6 2.9 1.4.9 2.6 1.8 3.8 2.9 1.4 1.5 2.5 3.2 3.3 5.1.8 2 1.1 4.1 1.1 6.2 0 5.7-1.8 10.3-5.5 13.9-3.7 3.5-8.7 5.4-13.9 5.3-2.5 0-5-.4-7.5-1.2-2.3-.8-4.3-2.1-5.9-3.8-1.5-1.4-2.8-3.2-3.7-5.1-.9-1.9-1.6-3.9-2-6l6.6-1.9c.2 1.6.6 3.1 1.2 4.5.6 1.3 1.4 2.5 2.4 3.4 1 1.1 2.3 2 3.8 2.6 1.6.6 3.3.9 5 .8 3.2.1 6.4-1.1 8.8-3.3 2.3-2.2 3.5-5.2 3.5-9 0-1.3-.2-2.7-.7-3.9-.5-1.3-1.3-2.4-2.3-3.4-.8-.6-1.6-1.2-2.4-1.7-1-.6-2.6-1.4-4.9-2.6L700 233c-1.8-.8-3.6-1.7-5.3-2.8-1-.7-2-1.5-2.9-2.4-1.4-1.3-2.6-2.9-3.3-4.7-.6-1.8-.9-3.6-.9-5.5-.1-4.4 1.6-8.6 4.8-11.6 3.4-3 7.8-4.7 12.4-4.5 1.8 0 3.5.3 5.3.7 1.6.4 3.2 1.1 4.6 2.1 1.2.9 2.4 1.9 3.4 3.1.8 1.3 1.7 2.6 2.5 4zM436.2 77V143.4h6.6V83.6h44.8V77zM482.4 8.5V74.9h6.6V15.1h44.8V8.5zM548.6 10.7h2.3v334h-2.3z"/><path class="st0" d="M6 285h789.6v2.3H6z"/></g></g></svg>
